<svg width="640" height="360" viewBox="0 0 640 360" fill="none" xmlns="http://www.w3.org/2000/svg">
  <rect width="640" height="360" rx="28" fill="#F8FAFC"/>
  <rect x="24" y="24" width="592" height="312" rx="22" fill="white" stroke="#E2E8F0"/>
  <rect x="48" y="48" width="168" height="42" rx="21" fill="#3F3CFF"/>
  <rect x="62" y="61" width="44" height="16" rx="8" fill="white" fill-opacity=".18"/>
  <rect x="118" y="63" width="70" height="12" rx="6" fill="white"/>
  <circle cx="194" cy="69" r="11" fill="white" fill-opacity=".24"/>
  <rect x="232" y="48" width="168" height="42" rx="21" fill="#F59E0B"/>
  <rect x="246" y="61" width="44" height="16" rx="8" fill="white" fill-opacity=".2"/>
  <rect x="302" y="63" width="72" height="12" rx="6" fill="white"/>
  <circle cx="378" cy="69" r="11" fill="white" fill-opacity=".24"/>
  <rect x="416" y="48" width="152" height="42" rx="21" fill="#12B981"/>
  <rect x="430" y="61" width="38" height="16" rx="8" fill="white" fill-opacity=".2"/>
  <rect x="480" y="63" width="58" height="12" rx="6" fill="white"/>
  <circle cx="546" cy="69" r="11" fill="white" fill-opacity=".24"/>

  <g filter="url(#shadow)">
    <rect x="48" y="112" width="168" height="178" rx="16" fill="white" stroke="#E5E7EB"/>
    <rect x="66" y="132" width="82" height="10" rx="5" fill="#111827"/>
    <rect x="66" y="150" width="120" height="8" rx="4" fill="#CBD5E1"/>
    <rect x="66" y="166" width="92" height="8" rx="4" fill="#E2E8F0"/>
    <rect x="66" y="192" width="132" height="46" rx="12" fill="#F5F6FF" stroke="#DFE3FF"/>
    <rect x="82" y="208" width="72" height="8" rx="4" fill="#3F3CFF"/>
    <rect x="82" y="224" width="94" height="7" rx="3.5" fill="#C7D2FE"/>
    <circle cx="78" cy="264" r="12" fill="#111827"/>
    <circle cx="96" cy="264" r="12" fill="#CBD5E1" stroke="white" stroke-width="3"/>
    <circle cx="114" cy="264" r="12" fill="#3F3CFF" stroke="white" stroke-width="3"/>
    <rect x="158" y="252" width="40" height="24" rx="12" fill="#F8FAFC" stroke="#E2E8F0"/>
    <path d="M170 264h16" stroke="#64748B" stroke-width="2" stroke-linecap="round"/>
  </g>

  <g filter="url(#shadow)">
    <rect x="236" y="112" width="168" height="146" rx="16" fill="white" stroke="#E5E7EB"/>
    <rect x="254" y="132" width="68" height="10" rx="5" fill="#111827"/>
    <rect x="254" y="150" width="112" height="8" rx="4" fill="#CBD5E1"/>
    <rect x="254" y="178" width="132" height="42" rx="12" fill="#FFF7ED" stroke="#FED7AA"/>
    <circle cx="276" cy="199" r="12" fill="#F59E0B"/>
    <rect x="296" y="190" width="64" height="8" rx="4" fill="#D97706"/>
    <rect x="296" y="206" width="78" height="7" rx="3.5" fill="#FDBA74"/>
    <rect x="254" y="232" width="46" height="10" rx="5" fill="#E2E8F0"/>
    <rect x="310" y="232" width="34" height="10" rx="5" fill="#E2E8F0"/>
  </g>

  <g filter="url(#shadow)">
    <rect x="424" y="112" width="144" height="190" rx="16" fill="white" stroke="#E5E7EB"/>
    <rect x="442" y="132" width="70" height="10" rx="5" fill="#111827"/>
    <rect x="442" y="150" width="94" height="8" rx="4" fill="#CBD5E1"/>
    <rect x="442" y="176" width="108" height="96" rx="14" fill="#ECFDF5" stroke="#A7F3D0"/>
    <path d="M470 229l18 18 40-48" stroke="#12B981" stroke-width="12" stroke-linecap="round" stroke-linejoin="round"/>
    <circle cx="454" cy="288" r="10" fill="#111827"/>
    <circle cx="470" cy="288" r="10" fill="#CBD5E1" stroke="white" stroke-width="3"/>
    <rect x="502" y="279" width="48" height="18" rx="9" fill="#F8FAFC" stroke="#E2E8F0"/>
  </g>

  <defs>
    <filter id="shadow" x="30" y="98" width="560" height="230" filterUnits="userSpaceOnUse" color-interpolation-filters="sRGB">
      <feDropShadow dx="0" dy="14" stdDeviation="10" flood-color="#0F172A" flood-opacity=".08"/>
    </filter>
  </defs>
</svg>
