<svg width="520" height="300" viewBox="0 0 520 300" fill="none" xmlns="http://www.w3.org/2000/svg">
  <rect width="520" height="300" rx="24" fill="#F8FAFC"/>
  <rect x="26" y="22" width="468" height="256" rx="20" fill="white" stroke="#E2E8F0"/>
  <rect x="48" y="44" width="164" height="42" rx="21" fill="#12B981"/>
  <rect x="62" y="57" width="42" height="16" rx="8" fill="white" fill-opacity=".2"/>
  <rect x="116" y="59" width="72" height="12" rx="6" fill="white"/>
  <circle cx="196" cy="65" r="11" fill="white" fill-opacity=".24"/>

  <g filter="url(#shadow)">
    <rect x="62" y="112" width="160" height="126" rx="16" fill="white" stroke="#E5E7EB"/>
    <rect x="80" y="132" width="76" height="10" rx="5" fill="#111827"/>
    <rect x="80" y="150" width="110" height="8" rx="4" fill="#CBD5E1"/>
    <rect x="80" y="176" width="124" height="32" rx="12" fill="#ECFDF5" stroke="#A7F3D0"/>
    <path d="M102 192l13 13 30-34" stroke="#12B981" stroke-width="8" stroke-linecap="round" stroke-linejoin="round"/>
    <rect x="154" y="186" width="32" height="8" rx="4" fill="#12B981"/>
    <rect x="154" y="200" width="24" height="6" rx="3" fill="#86EFAC"/>
    <circle cx="92" cy="224" r="9" fill="#111827"/>
    <circle cx="108" cy="224" r="9" fill="#CBD5E1" stroke="white" stroke-width="2"/>
    <circle cx="124" cy="224" r="9" fill="#12B981" stroke="white" stroke-width="2"/>
    <rect x="162" y="214" width="42" height="20" rx="10" fill="#F8FAFC" stroke="#E2E8F0"/>
  </g>

  <g filter="url(#shadow)">
    <rect x="246" y="112" width="208" height="126" rx="16" fill="white" stroke="#E5E7EB"/>
    <rect x="266" y="132" width="86" height="10" rx="5" fill="#111827"/>
    <rect x="266" y="150" width="140" height="8" rx="4" fill="#CBD5E1"/>
    <rect x="266" y="176" width="50" height="38" rx="12" fill="#F5F6FF" stroke="#DFE3FF"/>
    <rect x="330" y="176" width="50" height="38" rx="12" fill="#FFF7ED" stroke="#FED7AA"/>
    <rect x="394" y="176" width="40" height="38" rx="12" fill="#ECFDF5" stroke="#A7F3D0"/>
    <path d="M282 195h18" stroke="#3F3CFF" stroke-width="6" stroke-linecap="round"/>
    <path d="M346 195h18" stroke="#F59E0B" stroke-width="6" stroke-linecap="round"/>
    <path d="M408 195h12" stroke="#12B981" stroke-width="6" stroke-linecap="round"/>
    <rect x="266" y="222" width="52" height="8" rx="4" fill="#E2E8F0"/>
    <rect x="328" y="222" width="42" height="8" rx="4" fill="#E2E8F0"/>
    <rect x="380" y="222" width="54" height="8" rx="4" fill="#E2E8F0"/>
  </g>

  <defs>
    <filter id="shadow" x="44" y="98" width="430" height="166" filterUnits="userSpaceOnUse" color-interpolation-filters="sRGB">
      <feDropShadow dx="0" dy="12" stdDeviation="9" flood-color="#0F172A" flood-opacity=".08"/>
    </filter>
  </defs>
</svg>
